<svg xmlns="http://www.w3.org/2000/svg" xmlns:xlink="http://www.w3.org/1999/xlink" width="24" height="24" viewBox="0 0 24 24">
    <defs>
        <path id="prefix__a" d="M18 13V5c0-.55-.45-1-1-1H5c-.55 0-1 .45-1 1v.63c3.96 1.28 7.09 4.41 8.37 8.37H17c.55 0 1-.45 1-1zm2-13H2C.9 0 0 .9 0 2v2c0 .55.45 1 1 1s1-.45 1-1V3c0-.55.45-1 1-1h16c.55 0 1 .45 1 1v12c0 .55-.45 1-1 1h-5c-.55 0-1 .45-1 1s.45 1 1 1h6c1.1 0 2-.9 2-2V2c0-1.1-.9-2-2-2zM0 15v3h3c0-.62-.19-1.2-.51-1.68C1.95 15.52 1.04 15 0 15zm1.14-3.91c-.6-.1-1.14.39-1.14 1 0 .49.36.9.85.98 2.08.36 3.72 2 4.08 4.08.08.49.49.85.98.85.61 0 1.09-.54 1-1.14-.48-2.96-2.82-5.29-5.77-5.77zM1.1 7.05C.51 7 0 7.46 0 8.05c0 .51.38.94.88.99 4.27.41 7.67 3.81 8.08 8.08.05.5.48.87.99.87.6 0 1.06-.52 1-1.11-.53-5.19-4.66-9.31-9.85-9.83z"/>
    </defs>
    <g fill="none" fill-rule="evenodd" transform="translate(1 3)">
        <mask id="prefix__b" fill="#fff">
            <use xlink:href="#prefix__a"/>
        </mask>
        <g fill="#FFF" mask="url(#prefix__b)">
            <path d="M0 0H24V24H0z" transform="translate(-1 -3)"/>
        </g>
    </g>
</svg>
